<svg width="38" height="37" viewBox="0 0 38 37" fill="none" xmlns="http://www.w3.org/2000/svg">
<path fill-rule="evenodd" clip-rule="evenodd" d="M19.0006 36.6667C29.1258 36.6667 37.3339 28.4586 37.3339 18.3333C37.3339 8.20811 29.1258 0 19.0006 0C8.87535 0 0.667236 8.20811 0.667236 18.3333C0.667236 28.4586 8.87535 36.6667 19.0006 36.6667Z" fill="black" fill-opacity="0.04"/>
<path fill-rule="evenodd" clip-rule="evenodd" d="M17.4253 19.6854L17.5178 19.7778C19.1103 21.3196 20.4431 22.0437 21.5161 21.9501L21.8253 21.6616C22.2651 21.2614 22.5967 21.0077 22.8201 20.9006C23.2853 20.6775 23.6117 20.6819 24.4933 21.159C25.6531 21.7865 26.4539 22.5159 26.8631 22.9251C27.2431 23.3051 27.125 23.9597 26.9916 24.25L26.9032 24.412C26.6658 24.8245 25.8047 26.1853 24.1546 26.4181C23.5275 26.5065 22.7358 26.4254 21.8076 26.1459C19.8193 25.4575 17.8393 24.1959 15.8676 22.361L15.5169 22.0279L15.5136 22.0312L15.3444 21.859L15.172 21.6896L15.1753 21.6863L14.8422 21.3356C13.0073 19.3639 11.7457 17.3839 11.0573 15.3955C10.7777 14.4673 10.6966 13.6757 10.7851 13.0486C11.0344 11.2817 12.5769 10.4195 12.8638 10.2589L12.8929 10.2424C13.1412 10.0993 13.8689 9.93088 14.2781 10.3401L14.4718 10.5393C14.8936 10.9854 15.5063 11.7157 16.0442 12.7098C16.5212 13.5915 16.5257 13.9179 16.3026 14.383C16.1716 14.6561 15.8218 15.0908 15.2531 15.6871C15.1595 16.7601 15.8836 18.0929 17.4253 19.6854Z" fill="black"/>
</svg>
