<svg width="25" height="25" viewBox="0 0 25 25" fill="none" xmlns="http://www.w3.org/2000/svg">
<path fill-rule="evenodd" clip-rule="evenodd" d="M12.5 23.1185C19.1274 23.1185 24.5 17.9777 24.5 11.6362C24.5 5.29467 19.1274 0.15387 12.5 0.15387C5.87258 0.15387 0.5 5.29467 0.5 11.6362C0.5 13.3442 0.940189 15.1393 1.82057 17.0214L2.01595 17.426C2.67754 18.7549 2.71277 20.3087 2.11209 21.666C1.55503 22.9248 1.46023 23.707 1.82767 24.0128C2.23008 24.3476 3.3886 24.0865 5.30322 23.2294L5.81984 22.9923C6.80936 22.5276 7.92171 22.4007 8.98647 22.6266L9.25157 22.6904C10.3097 22.9758 11.3925 23.1185 12.5 23.1185Z" fill="url(#paint0_linear_156_4340)"/>
<defs>
<linearGradient id="paint0_linear_156_4340" x1="12.5" y1="0.15387" x2="12.5" y2="24.1539" gradientUnits="userSpaceOnUse">
<stop stop-color="#384CFF"/>
<stop offset="1" stop-color="#00A3FF"/>
</linearGradient>
</defs>
</svg>
