<svg width="27" height="27" viewBox="0 0 27 27" fill="none" xmlns="http://www.w3.org/2000/svg">
<path fill-rule="evenodd" clip-rule="evenodd" d="M13.5 0.15387C20.6797 0.15387 26.5 5.97417 26.5 13.1539C26.5 20.3336 20.6797 26.1539 13.5 26.1539C6.3203 26.1539 0.5 20.3336 0.5 13.1539C0.5 5.97417 6.3203 0.15387 13.5 0.15387ZM19.8291 7.20333C19.6015 6.8282 19.1347 6.6873 18.7432 6.85765L18.6386 6.91188L12.0058 10.939C11.7677 11.0836 11.5603 11.2723 11.3944 11.4944L11.2779 11.6671L7.25785 18.2926L7.20362 18.3972C7.04876 18.7531 7.15113 19.1713 7.45286 19.4153L7.5493 19.4831L7.65765 19.5388C7.87995 19.6341 8.13248 19.632 8.35318 19.5331L8.46058 19.4755L15.0273 15.3564C15.2489 15.2175 15.443 15.0398 15.6006 14.8325L15.7119 14.6716L19.8215 8.11461C19.9964 7.8368 19.9993 7.484 19.8291 7.20333Z" fill="#555555" fill-opacity="0.5"/>
</svg>
