<svg width="36" height="26" viewBox="0 0 36 26" fill="none" xmlns="http://www.w3.org/2000/svg">
<path fill-rule="evenodd" clip-rule="evenodd" d="M18.0156 16.563C22.3772 16.563 25.4782 19.3794 26.2899 23.521L26.3417 23.8055C26.5086 24.7929 25.9882 25.7585 25.1793 25.9623C25.0799 25.9874 24.9786 26 24.8771 26H11.0233C10.1847 26 9.50497 25.1702 9.50497 24.1466C9.50497 24.0452 9.51179 23.944 9.52532 23.8442L9.55064 23.6954C10.3932 19.5975 13.5548 16.563 18.0156 16.563ZM7.16607 16.7629C8.35501 16.7629 9.44109 17.4994 9.44109 17.4994C9.77173 17.6785 9.92636 18.1737 9.78647 18.6056C9.76369 18.676 9.73379 18.7419 9.69768 18.8017L9.62049 18.9102C8.91963 19.8151 8.43123 20.8467 8.04207 22.0766L7.93718 22.4266L7.88384 22.6355C7.83677 22.8503 7.80807 23.0185 7.78941 23.1761L7.77379 23.3314C7.76414 23.4469 7.75859 23.5617 7.75698 23.6755L7.7575 23.8456C7.76802 24.3634 7.45415 24.7973 7.05646 24.8147C7.02406 24.8161 6.99163 24.8147 6.95941 24.8104L1.07965 24.8147C0.415035 24.7268 -0.0651137 23.9533 0.00720706 23.0871C0.0143714 23.0013 0.0269209 22.9165 0.0447025 22.8334L0.0752801 22.7102C1.0326 19.3309 3.19521 16.7629 7.16607 16.7629ZM28.8338 16.7629C32.6628 16.7629 34.8105 19.1507 35.8174 22.3513L35.9246 22.7102L35.9552 22.8334C35.9729 22.9165 35.9855 23.0013 35.9927 23.0871C36.0589 23.8811 35.661 24.5972 35.0823 24.7788L34.9202 24.8147L29.0405 24.8104C29.0082 24.8147 28.9758 24.8161 28.9434 24.8147C28.5899 24.7992 28.3026 24.4547 28.2505 24.0147L28.2424 23.8456L28.2429 23.6755L28.2375 23.5041L28.2105 23.1761C28.198 23.0711 28.1811 22.9613 28.1573 22.8361L28.116 22.6355L28.0627 22.4266L27.9578 22.0766C27.6242 21.0224 27.2178 20.1139 26.6671 19.306L26.3022 18.8017C26.2661 18.7419 26.2362 18.676 26.2134 18.6056C26.091 18.2277 26.1941 17.8013 26.4433 17.5806L26.5588 17.4994C26.5588 17.4994 27.6304 16.7629 28.8338 16.7629ZM7.54661 3.17701C8.83578 3.56239 10.0602 4.85743 9.98841 7.89895L9.97828 8.18028C9.94318 8.24758 10.4243 8.52243 10.4243 9.40721C10.4243 9.99705 10.2756 10.3985 9.97828 10.6116C9.43342 13.5754 8.29834 15.0573 6.57304 15.0573C4.84774 15.0573 3.61308 13.5754 2.86904 10.6116C2.58951 10.4587 2.44975 10.0573 2.44975 9.40721C2.44975 8.75714 2.58951 8.34817 2.86904 8.18028C2.89879 5.72242 3.34759 4.31937 4.21547 3.97113C4.55998 3.83375 4.88592 3.83375 5.19329 3.97113C5.50416 3.06565 6.2886 2.80094 7.54661 3.17701ZM28.4538 3.17701C29.7118 2.80094 30.4963 3.06565 30.8071 3.97113C31.1145 3.83375 31.4405 3.83375 31.785 3.97113C32.6528 4.31937 33.1016 5.72242 33.1314 8.18028C33.4109 8.34817 33.5507 8.75714 33.5507 9.40721C33.5507 10.0573 33.4109 10.4587 33.1314 10.6116C32.3874 13.5754 31.1527 15.0573 29.4274 15.0573C27.7021 15.0573 26.567 13.5754 26.0222 10.6116C25.7248 10.3985 25.5762 9.99705 25.5762 9.40721C25.5762 8.61091 25.9659 8.30865 26.0182 8.2071L26.0222 8.18028L26.012 7.89895C25.9402 4.85743 27.1647 3.56239 28.4538 3.17701ZM22.9188 3.20511C24.0038 5.53424 24.2053 8.37922 23.523 11.7401C23.4735 12.089 23.6522 12.3692 24.0591 12.5805L24.1792 12.6335C24.33 12.6924 24.414 12.8926 24.3668 13.0808C24.3534 13.1342 24.3302 13.1825 24.2994 13.2222L24.2479 13.2749C23.5762 13.8108 21.638 13.8505 20.5134 13.5728C19.7702 14.5625 18.9578 15.0573 18.0763 15.0573C17.1948 15.0573 16.3735 14.5625 15.6123 13.5728C13.4829 13.3607 12.4181 11.3702 12.4181 7.601C12.4181 4.15034 13.5292 1.88247 15.7512 0.797394C16.1342 0.610319 16.5549 0.578839 16.9531 0.70743L17.248 0.802629C19.3103 -0.801728 21.2006 -0.000900792 22.9188 3.20511Z" fill="#555555" fill-opacity="0.5"/>
</svg>
