<svg width="37" height="37" viewBox="0 0 37 37" fill="none" xmlns="http://www.w3.org/2000/svg">
<path fill-rule="evenodd" clip-rule="evenodd" d="M18.6668 36.6667C28.792 36.6667 37.0002 28.4586 37.0002 18.3333C37.0002 8.20811 28.792 0 18.6668 0C8.54161 0 0.333496 8.20811 0.333496 18.3333C0.333496 28.4586 8.54161 36.6667 18.6668 36.6667Z" fill="black" fill-opacity="0.04"/>
<path fill-rule="evenodd" clip-rule="evenodd" d="M20.041 11.9167C21.5598 11.9167 22.791 13.1479 22.791 14.6667V22C22.791 23.5188 21.5598 24.75 20.041 24.75H11.791C10.2722 24.75 9.04102 23.5188 9.04102 22V14.6667C9.04102 13.1479 10.2722 11.9167 11.791 11.9167H20.041ZM28.1984 15.0985C28.2589 15.2075 28.2907 15.33 28.2907 15.4547V21.212C28.2907 21.617 27.9623 21.9454 27.5573 21.9454C27.4327 21.9454 27.3101 21.9136 27.2012 21.8531L24.6372 20.4286C24.3461 20.2669 24.1657 19.9602 24.1657 19.6273V17.0394C24.1657 16.7065 24.3461 16.3997 24.6372 16.2381L27.2012 14.8136C27.5552 14.6169 28.0017 14.7445 28.1984 15.0985Z" fill="black"/>
</svg>
