<svg width="18" height="5" viewBox="0 0 18 5" fill="none" xmlns="http://www.w3.org/2000/svg">
<path d="M1.8 4.09094C0.805888 4.09094 0 3.17516 0 2.04549C0 0.915814 0.805888 3.24249e-05 1.8 3.24249e-05C2.79411 3.24249e-05 3.6 0.915814 3.6 2.04549C3.6 3.17516 2.79411 4.09094 1.8 4.09094Z" fill="black"/>
<path d="M7.2 2.04549C7.2 3.17516 8.00589 4.09094 9 4.09094C9.99411 4.09094 10.8 3.17516 10.8 2.04549C10.8 0.915814 9.99411 3.24249e-05 9 3.24249e-05C8.00589 3.24249e-05 7.2 0.915814 7.2 2.04549Z" fill="black"/>
<path d="M14.4 2.04549C14.4 3.17516 15.2059 4.09094 16.2 4.09094C17.1941 4.09094 18 3.17516 18 2.04549C18 0.915814 17.1941 3.24249e-05 16.2 3.24249e-05C15.2059 3.24249e-05 14.4 0.915814 14.4 2.04549Z" fill="black"/>
</svg>
