<svg width="56" height="58" viewBox="0 0 56 58" fill="none" xmlns="http://www.w3.org/2000/svg">
<path d="M23.0704 0.841613C8.20186 3.5009 -1.94488 17.1738 0.557927 31.1675C1.9002 38.6724 6.71848 45.0437 13.6416 48.7976L15.0222 56.5169C15.1206 57.0667 15.497 57.5267 16.0161 57.7314C16.5256 57.9344 17.1137 57.8646 17.5713 57.5248L24.726 52.0694C27.1961 52.2687 29.6969 52.1463 32.1674 51.7044C47.036 49.0452 57.2015 35.4776 54.6988 21.4843C52.196 7.49056 37.939 -1.81767 23.0704 0.841613ZM43.488 16.3279L33.6356 34.459C33.1651 35.3224 32.0618 35.5432 31.2982 35.0114L24.7718 30.4653L14.1482 38.3856C13.5438 38.8364 12.702 38.8084 12.1306 38.3116C11.5578 37.816 11.4082 36.9894 11.7687 36.3239L21.6211 18.1928C21.84 17.7909 22.2215 17.5001 22.666 17.395C23.119 17.282 23.5819 17.377 23.9585 17.6404L30.4845 22.1862L41.1081 14.2663C41.715 13.8154 42.5564 13.8457 43.1261 14.3402C43.6989 14.8353 43.8485 15.6624 43.488 16.3279Z" fill="white"/>
</svg>
