<svg width="38" height="37" viewBox="0 0 38 37" fill="none" xmlns="http://www.w3.org/2000/svg">
<path fill-rule="evenodd" clip-rule="evenodd" d="M19.0008 36.6667C29.126 36.6667 37.3341 28.4586 37.3341 18.3333C37.3341 8.20811 29.126 0 19.0008 0C8.87559 0 0.66748 8.20811 0.66748 18.3333C0.66748 28.4586 8.87559 36.6667 19.0008 36.6667Z" fill="black" fill-opacity="0.04"/>
<path fill-rule="evenodd" clip-rule="evenodd" d="M21.0625 25.4375C21.0625 26.5766 20.1391 27.5 19 27.5C17.9065 27.5 17.0117 26.649 16.9419 25.5731L16.9375 25.4375H21.0625ZM18.9925 9.85419C22.0271 9.85419 23.9532 11.9626 24.4871 15.3493L25.2245 20.6985C25.7438 22.6779 26.7918 22.0021 26.7918 23.0875C26.7918 23.7782 26.1075 24.102 24.7387 24.0587L24.5385 24.05H13.4618L13.2616 24.0587C11.8929 24.102 11.2085 23.7782 11.2085 23.0875C11.2085 22.0409 12.183 22.6319 12.7182 20.9007L12.7758 20.6985C12.7758 20.6985 13.348 16.6675 13.5132 15.3493C14.0335 12.0494 15.8754 9.96315 18.7766 9.85833L18.9925 9.85419Z" fill="black"/>
</svg>
