<svg width="17" height="14" viewBox="0 0 17 14" fill="none" xmlns="http://www.w3.org/2000/svg">
<path d="M7.16658 0.125C5.4407 0.125 4.04159 1.52411 4.04159 3.25C4.04159 4.97589 5.4407 6.375 7.16658 6.375C8.89248 6.375 10.2916 4.97589 10.2916 3.25C10.2916 1.52411 8.89248 0.125 7.16658 0.125Z" fill="url(#paint0_linear_1959_570)"/>
<path d="M3.83325 8.04167C2.10736 8.04167 0.708252 9.44078 0.708252 11.1667V12.1569C0.708252 12.7846 1.16315 13.3198 1.78265 13.4209C5.34833 14.0031 8.98484 14.0031 12.5505 13.4209C13.17 13.3198 13.6249 12.7846 13.6249 12.1569V11.1667C13.6249 9.44078 12.2258 8.04167 10.4999 8.04167H10.2159C10.0621 8.04167 9.90934 8.06598 9.76319 8.1137L9.04193 8.34921C7.82336 8.74712 6.50981 8.74712 5.29124 8.34921L4.56998 8.1137C4.42383 8.06598 4.27105 8.04167 4.11731 8.04167H3.83325Z" fill="url(#paint1_linear_1959_570)"/>
<path d="M14.2499 2.20833C14.5951 2.20833 14.8749 2.48816 14.8749 2.83333V4.29167H16.3333C16.6784 4.29167 16.9583 4.57149 16.9583 4.91667C16.9583 5.26184 16.6784 5.54167 16.3333 5.54167H14.8749V7C14.8749 7.34518 14.5951 7.625 14.2499 7.625C13.9047 7.625 13.6249 7.34518 13.6249 7V5.54167H12.1666C11.8214 5.54167 11.5416 5.26184 11.5416 4.91667C11.5416 4.57149 11.8214 4.29167 12.1666 4.29167H13.6249V2.83333C13.6249 2.48816 13.9047 2.20833 14.2499 2.20833Z" fill="url(#paint2_linear_1959_570)"/>
<defs>
<linearGradient id="paint0_linear_1959_570" x1="8.83325" y1="0.125" x2="8.83325" y2="13.8575" gradientUnits="userSpaceOnUse">
<stop stop-color="#384CFF"/>
<stop offset="1" stop-color="#00A3FF"/>
</linearGradient>
<linearGradient id="paint1_linear_1959_570" x1="8.83325" y1="0.125" x2="8.83325" y2="13.8575" gradientUnits="userSpaceOnUse">
<stop stop-color="#384CFF"/>
<stop offset="1" stop-color="#00A3FF"/>
</linearGradient>
<linearGradient id="paint2_linear_1959_570" x1="8.83325" y1="0.125" x2="8.83325" y2="13.8575" gradientUnits="userSpaceOnUse">
<stop stop-color="#384CFF"/>
<stop offset="1" stop-color="#00A3FF"/>
</linearGradient>
</defs>
</svg>
