<svg width="37" height="37" viewBox="0 0 37 37" fill="none" xmlns="http://www.w3.org/2000/svg">
<path fill-rule="evenodd" clip-rule="evenodd" d="M18.3333 36.6667C28.4586 36.6667 36.6667 28.4586 36.6667 18.3333C36.6667 8.20811 28.4586 0 18.3333 0C8.20811 0 0 8.20811 0 18.3333C0 28.4586 8.20811 36.6667 18.3333 36.6667Z" fill="#384CFF"/>
<path d="M16.17 18.1368C16.17 16.801 17.2132 15.7182 18.5 15.7182C19.7868 15.7182 20.83 16.801 20.83 18.1368C20.83 19.4725 19.7868 20.5553 18.5 20.5553C17.2132 20.5553 16.17 19.4725 16.17 18.1368Z" fill="white"/>
<path fill-rule="evenodd" clip-rule="evenodd" d="M13.8128 12.3779C13.8128 10.5123 15.2697 9 17.0669 9H19.9331C21.7303 9 23.1872 10.5123 23.1872 12.3779C23.1872 12.3938 23.199 12.4071 23.2143 12.4084L25.5232 12.603C26.5574 12.6902 27.408 13.4841 27.601 14.5424C28.0936 17.2429 28.1304 20.0117 27.7096 22.7253L27.6089 23.3747C27.4191 24.5989 26.4484 25.5303 25.2577 25.6307L23.2463 25.8003C20.0873 26.0666 16.9127 26.0666 13.7537 25.8003L11.7423 25.6307C10.5516 25.5303 9.58095 24.5989 9.39111 23.3747L9.29041 22.7253C8.86963 20.0117 8.90636 17.2429 9.39896 14.5423C9.592 13.4841 10.4426 12.6902 11.4768 12.603L13.7857 12.4084C13.801 12.4071 13.8128 12.3938 13.8128 12.3779ZM18.5 14.1058C16.3553 14.1058 14.6167 15.9105 14.6167 18.1368C14.6167 20.363 16.3553 22.1677 18.5 22.1677C20.6447 22.1677 22.3833 20.363 22.3833 18.1368C22.3833 15.9105 20.6447 14.1058 18.5 14.1058Z" fill="white"/>
</svg>
